<svg xmlns="http://www.w3.org/2000/svg" width="678" height="230" viewBox="0 0 678 230" font-family="Malgun Gothic, Apple SD Gothic Neo, Noto Sans KR, sans-serif">
<defs><pattern id="hatch" width="6" height="6" patternUnits="userSpaceOnUse" patternTransform="rotate(45)"><line x1="0" y1="0" x2="0" y2="6" stroke="#9AA3B2" stroke-width="2"/></pattern></defs>
<rect x="0" y="0" width="678" height="230" fill="#FFFFFF"/>
<line x1="114.0" y1="28" x2="114.0" y2="218" stroke="#7A8BA6" stroke-width="1.2" stroke-dasharray="4,3"/>
<text x="114.0" y="24" font-size="12" text-anchor="middle" fill="#7A8BA6">① Set</text>
<line x1="258.0" y1="28" x2="258.0" y2="218" stroke="#7A8BA6" stroke-width="1.2" stroke-dasharray="4,3"/>
<text x="258.0" y="24" font-size="12" text-anchor="middle" fill="#7A8BA6">② 유지</text>
<line x1="402.0" y1="28" x2="402.0" y2="218" stroke="#7A8BA6" stroke-width="1.2" stroke-dasharray="4,3"/>
<text x="402.0" y="24" font-size="12" text-anchor="middle" fill="#7A8BA6">③ 토글</text>
<line x1="546.0" y1="28" x2="546.0" y2="218" stroke="#7A8BA6" stroke-width="1.2" stroke-dasharray="4,3"/>
<text x="546.0" y="24" font-size="12" text-anchor="middle" fill="#7A8BA6">④ Reset</text>
<text x="68" y="61.0" font-size="15" text-anchor="end" font-weight="bold" fill="#111111">CLK</text>
<line x1="78.0" y1="68" x2="114.0" y2="68" stroke="#1F2A44" stroke-width="2.2" stroke-linecap="square"/>
<line x1="114.0" y1="68" x2="114.0" y2="44" stroke="#1F2A44" stroke-width="2.2"/>
<line x1="114.0" y1="44" x2="186.0" y2="44" stroke="#1F2A44" stroke-width="2.2" stroke-linecap="square"/>
<line x1="186.0" y1="44" x2="186.0" y2="68" stroke="#1F2A44" stroke-width="2.2"/>
<line x1="186.0" y1="68" x2="258.0" y2="68" stroke="#1F2A44" stroke-width="2.2" stroke-linecap="square"/>
<line x1="258.0" y1="68" x2="258.0" y2="44" stroke="#1F2A44" stroke-width="2.2"/>
<line x1="258.0" y1="44" x2="330.0" y2="44" stroke="#1F2A44" stroke-width="2.2" stroke-linecap="square"/>
<line x1="330.0" y1="44" x2="330.0" y2="68" stroke="#1F2A44" stroke-width="2.2"/>
<line x1="330.0" y1="68" x2="402.0" y2="68" stroke="#1F2A44" stroke-width="2.2" stroke-linecap="square"/>
<line x1="402.0" y1="68" x2="402.0" y2="44" stroke="#1F2A44" stroke-width="2.2"/>
<line x1="402.0" y1="44" x2="474.0" y2="44" stroke="#1F2A44" stroke-width="2.2" stroke-linecap="square"/>
<line x1="474.0" y1="44" x2="474.0" y2="68" stroke="#1F2A44" stroke-width="2.2"/>
<line x1="474.0" y1="68" x2="546.0" y2="68" stroke="#1F2A44" stroke-width="2.2" stroke-linecap="square"/>
<line x1="546.0" y1="68" x2="546.0" y2="44" stroke="#1F2A44" stroke-width="2.2"/>
<line x1="546.0" y1="44" x2="618.0" y2="44" stroke="#1F2A44" stroke-width="2.2" stroke-linecap="square"/>
<line x1="618.0" y1="44" x2="618.0" y2="68" stroke="#1F2A44" stroke-width="2.2"/>
<line x1="618.0" y1="68" x2="654.0" y2="68" stroke="#1F2A44" stroke-width="2.2" stroke-linecap="square"/>
<line x1="78" y1="80.0" x2="654" y2="80.0" stroke="#E4E8EF" stroke-width="1"/>
<text x="68" y="107.0" font-size="15" text-anchor="end" font-weight="bold" fill="#111111">J</text>
<line x1="78.0" y1="90" x2="186.0" y2="90" stroke="#1F2A44" stroke-width="2.2" stroke-linecap="square"/>
<line x1="186.0" y1="90" x2="186.0" y2="114" stroke="#1F2A44" stroke-width="2.2"/>
<line x1="186.0" y1="114" x2="330.0" y2="114" stroke="#1F2A44" stroke-width="2.2" stroke-linecap="square"/>
<line x1="330.0" y1="114" x2="330.0" y2="90" stroke="#1F2A44" stroke-width="2.2"/>
<line x1="330.0" y1="90" x2="474.0" y2="90" stroke="#1F2A44" stroke-width="2.2" stroke-linecap="square"/>
<line x1="474.0" y1="90" x2="474.0" y2="114" stroke="#1F2A44" stroke-width="2.2"/>
<line x1="474.0" y1="114" x2="654.0" y2="114" stroke="#1F2A44" stroke-width="2.2" stroke-linecap="square"/>
<line x1="78" y1="126.0" x2="654" y2="126.0" stroke="#E4E8EF" stroke-width="1"/>
<text x="68" y="153.0" font-size="15" text-anchor="end" font-weight="bold" fill="#111111">K</text>
<line x1="78.0" y1="160" x2="330.0" y2="160" stroke="#1F2A44" stroke-width="2.2" stroke-linecap="square"/>
<line x1="330.0" y1="160" x2="330.0" y2="136" stroke="#1F2A44" stroke-width="2.2"/>
<line x1="330.0" y1="136" x2="654.0" y2="136" stroke="#1F2A44" stroke-width="2.2" stroke-linecap="square"/>
<line x1="78" y1="172.0" x2="654" y2="172.0" stroke="#E4E8EF" stroke-width="1"/>
<text x="68" y="199.0" font-size="15" text-anchor="end" font-weight="bold" fill="#111111">Q</text>
<line x1="78.0" y1="206" x2="114.0" y2="206" stroke="#1F2A44" stroke-width="2.2" stroke-linecap="square"/>
<line x1="114.0" y1="206" x2="114.0" y2="182" stroke="#1F2A44" stroke-width="2.2"/>
<line x1="114.0" y1="182" x2="402.0" y2="182" stroke="#1F2A44" stroke-width="2.2" stroke-linecap="square"/>
<line x1="402.0" y1="182" x2="402.0" y2="206" stroke="#1F2A44" stroke-width="2.2"/>
<line x1="402.0" y1="206" x2="654.0" y2="206" stroke="#1F2A44" stroke-width="2.2" stroke-linecap="square"/>
<line x1="78" y1="218.0" x2="654" y2="218.0" stroke="#E4E8EF" stroke-width="1"/>
</svg>